<svg fill="currentColor" version="1.1" viewBox="0 0 16 16" xmlns="http://www.w3.org/2000/svg">
 <path d="m4.6288 0.79358c-1.3807 0-2.5078 1.1271-2.5078 2.5078 0 0.93107 0.52383 1.727 1.2814 2.1591v5.0774c-0.75785 0.43247-1.2814 1.2297-1.2814 2.1608 0 1.3807 1.1271 2.5078 2.5078 2.5078s2.5078-1.1271 2.5078-2.5078c0-0.9311-0.52359-1.7283-1.2814-2.1608v-2.1391l1.1463 1.1463a0.37232 0.37232 0 0 0 0.26363 0.10846h2.039c0.4321 0.75764 1.228 1.2814 2.1591 1.2814 1.3807 0 2.5078-1.1271 2.5078-2.5078 0-1.3807-1.1271-2.5078-2.5078-2.5078-0.9311 0-1.727 0.52383-2.1591 1.2814h-1.178l-1.9939-1.9956c0.57871-0.46039 1.0045-1.1102 1.0045-1.9038 0-1.3807-1.1271-2.5078-2.5078-2.5078z"/>
</svg>
